<?xml version="1.0" encoding="UTF-8" standalone="no"?>
<!-- Created with Inkscape (http://www.inkscape.org/) -->

<svg
   width="64"
   height="64"
   viewBox="0 0 16.933334 16.933333"
   version="1.1"
   id="svg1"
   inkscape:version="1.3.2 (091e20ef0f, 2023-11-25, custom)"
   sodipodi:docname="enemy.svg"
   xmlns:inkscape="http://www.inkscape.org/namespaces/inkscape"
   xmlns:sodipodi="http://sodipodi.sourceforge.net/DTD/sodipodi-0.dtd"
   xmlns="http://www.w3.org/2000/svg"
   xmlns:svg="http://www.w3.org/2000/svg">
  <sodipodi:namedview
     id="namedview1"
     pagecolor="#b5b5b5"
     bordercolor="#666666"
     borderopacity="1.0"
     inkscape:showpageshadow="2"
     inkscape:pageopacity="0.0"
     inkscape:pagecheckerboard="true"
     inkscape:deskcolor="#d1d1d1"
     inkscape:document-units="px"
     showgrid="true"
     inkscape:zoom="17.214677"
     inkscape:cx="25.82099"
     inkscape:cy="24.397785"
     inkscape:window-width="1920"
     inkscape:window-height="1052"
     inkscape:window-x="0"
     inkscape:window-y="0"
     inkscape:window-maximized="1"
     inkscape:current-layer="layer1">
    <inkscape:grid
       id="grid1"
       units="px"
       originx="0"
       originy="0"
       spacingx="0.26458334"
       spacingy="0.26458334"
       empcolor="#0099e5"
       empopacity="0.30196078"
       color="#0099e5"
       opacity="0.14901961"
       empspacing="8"
       dotted="false"
       gridanglex="30"
       gridanglez="30"
       visible="true" />
  </sodipodi:namedview>
  <defs
     id="defs1" />
  <g
     inkscape:label="Layer 1"
     inkscape:groupmode="layer"
     id="layer1">
    <path
       id="path1"
       style="fill:#fc9c36;fill-opacity:1;stroke:none;stroke-width:0.79375001;stroke-linecap:round;stroke-linejoin:round;stroke-opacity:1;stroke-dasharray:none"
       d="M 8.4227418 0.67644451 C 6.8657843 0.72290815 6.0229975 1.5211863 5.5665853 2.3507609 C 3.1090848 3.002312 1.2450229 7.3554847 0.81907146 10.194727 C 0.5802965 11.786311 1.0260654 14.156292 1.6877523 14.371216 C 1.2109788 10.137581 3.6575811 13.009536 4.0033732 11.662337 C 4.2821187 10.576346 4.0829595 8.1165481 6.06733 7.8574016 L 8.4470297 16.144234 L 10.839649 7.8811728 C 12.957878 7.9971818 12.813836 10.53839 13.127881 11.638049 C 13.509822 12.975449 15.878458 10.038946 15.515849 14.283883 C 16.17151 14.051221 16.553415 11.669754 16.271875 10.085173 C 15.779706 7.3151424 13.862875 2.9721732 11.470101 2.5264608 C 11.029606 1.5953397 10.158253 0.62465235 8.4227418 0.67644451 z " />
  </g>
</svg>
