<?xml version="1.0" encoding="UTF-8" standalone="no"?>
<!-- Created with Inkscape (http://www.inkscape.org/) -->

<svg
   width="64"
   height="64"
   viewBox="0 0 16.933333 16.933333"
   version="1.1"
   id="svg1"
   inkscape:version="1.3.2 (091e20ef0f, 2023-11-25, custom)"
   sodipodi:docname="turret-shockwave.svg"
   xmlns:inkscape="http://www.inkscape.org/namespaces/inkscape"
   xmlns:sodipodi="http://sodipodi.sourceforge.net/DTD/sodipodi-0.dtd"
   xmlns="http://www.w3.org/2000/svg"
   xmlns:svg="http://www.w3.org/2000/svg">
  <sodipodi:namedview
     id="namedview1"
     pagecolor="#9b9b9b"
     bordercolor="#474747"
     borderopacity="1"
     inkscape:showpageshadow="2"
     inkscape:pageopacity="0.0"
     inkscape:pagecheckerboard="true"
     inkscape:deskcolor="#a3a3a3"
     inkscape:document-units="px"
     showgrid="true"
     inkscape:zoom="8"
     inkscape:cx="23.0625"
     inkscape:cy="33.25"
     inkscape:window-width="1920"
     inkscape:window-height="1052"
     inkscape:window-x="0"
     inkscape:window-y="0"
     inkscape:window-maximized="1"
     inkscape:current-layer="layer1">
    <inkscape:grid
       id="grid1"
       units="px"
       originx="0"
       originy="0"
       spacingx="0.26458333"
       spacingy="0.26458333"
       empcolor="#0099e5"
       empopacity="1"
       color="#0099e5"
       opacity="0.5372549"
       empspacing="8"
       dotted="false"
       gridanglex="30"
       gridanglez="30"
       visible="true" />
  </sodipodi:namedview>
  <defs
     id="defs1" />
  <g
     inkscape:label="Layer 1"
     inkscape:groupmode="layer"
     id="layer1">
    <path
       id="path22"
       style="opacity:1;fill:none;stroke:#ffffff;stroke-width:0.52916666;stroke-linecap:round;stroke-linejoin:round;stroke-dasharray:none;stroke-opacity:1;paint-order:stroke markers fill"
       d="M 8.4666664,0.90463711 A 7.5620289,7.562029 0 0 0 5.0696611,1.7271187 L 4.4567232,1.1141806 2.1166666,2.1166666 1.1141807,4.4567231 1.7271188,5.0696611 A 7.5620289,7.562029 0 0 0 0.90463716,8.4666664 7.5620289,7.562029 0 0 0 1.7271188,11.863671 l -0.6129381,0.612939 1.0024859,2.340056 2.3400566,1.002486 0.6129379,-0.612937 a 7.5620289,7.562029 0 0 0 3.3970053,0.822481 7.5620289,7.562029 0 0 0 3.3970046,-0.822481 l 0.612939,0.612937 2.340056,-1.002486 1.002486,-2.340056 -0.612937,-0.612939 A 7.5620289,7.562029 0 0 0 16.028696,8.4666664 7.5620289,7.562029 0 0 0 15.215444,5.0604301 L 15.819152,4.4567231 14.816666,2.1166666 12.47661,1.1141806 11.872903,1.7178876 A 7.5620289,7.562029 0 0 0 8.4666664,0.90463711 Z" />
    <path
       id="path26"
       style="opacity:1;fill:none;stroke:#ffffff;stroke-width:0.529167;stroke-linecap:round;stroke-linejoin:round;stroke-dasharray:none;stroke-opacity:1;paint-order:stroke markers fill"
       d="M 7.6729165 4.2333332 L 7.6729165 4.9392333 A 3.6247139 3.6247139 0 0 0 4.9392333 7.6729165 L 4.2333332 7.6729165 L 4.2333332 9.2604165 L 4.9392333 9.2604165 A 3.6247139 3.6247139 0 0 0 7.6729165 11.9941 L 7.6729165 12.7 L 9.2604165 12.7 L 9.2604165 11.9941 A 3.6247139 3.6247139 0 0 0 11.9941 9.2604165 L 12.7 9.2604165 L 12.7 7.6729165 L 12.002368 7.6729165 A 3.6247139 3.6247139 0 0 0 9.2604165 4.9309651 L 9.2604165 4.2333332 L 7.6729165 4.2333332 z " />
  </g>
</svg>
